<mxfile host="app.diagrams.net" modified="2023-09-04T20:19:44.294Z" agent="Mozilla/5.0 (Windows NT 10.0; Win64; x64) AppleWebKit/537.36 (KHTML, like Gecko) Chrome/116.0.0.0 Safari/537.36" etag="wypD-hWoaabwQHvHnFLi" version="21.7.2" type="github" pages="2">
  <diagram name="Page-1" id="1zwPtqB9l2bWW5O2SAb1">
    <mxGraphModel dx="1276" dy="741" grid="1" gridSize="10" guides="1" tooltips="1" connect="1" arrows="1" fold="1" page="1" pageScale="1" pageWidth="850" pageHeight="1100" math="0" shadow="0">
      <root>
        <mxCell id="0" />
        <mxCell id="1" parent="0" />
        <mxCell id="4_Z_EmdjlEHrfq8_AM0--1" value="Uvod - ÄŒas 01" style="swimlane;whiteSpace=wrap;html=1;fillColor=#fff2cc;strokeColor=#d6b656;" parent="1" vertex="1">
          <mxGeometry x="40" y="40" width="710" height="170" as="geometry">
            <mxRectangle x="40" y="40" width="120" height="30" as="alternateBounds" />
          </mxGeometry>
        </mxCell>
        <mxCell id="4_Z_EmdjlEHrfq8_AM0--7" value="Definicija pojma IoT" style="text;html=1;align=center;verticalAlign=middle;resizable=0;points=[];autosize=1;strokeColor=none;fillColor=none;" parent="4_Z_EmdjlEHrfq8_AM0--1" vertex="1">
          <mxGeometry y="30" width="130" height="30" as="geometry" />
        </mxCell>
        <mxCell id="4_Z_EmdjlEHrfq8_AM0--2" value="Vertical Container" style="swimlane;whiteSpace=wrap;html=1;fillColor=#dae8fc;strokeColor=#6c8ebf;" parent="1" vertex="1">
          <mxGeometry x="40" y="220" width="200" height="200" as="geometry" />
        </mxCell>
      </root>
    </mxGraphModel>
  </diagram>
  <diagram id="HHGCkESWU1YI9tuVtw37" name="Page-2">
    <mxGraphModel dx="1275" dy="908" grid="0" gridSize="10" guides="1" tooltips="1" connect="1" arrows="1" fold="1" page="0" pageScale="1" pageWidth="850" pageHeight="1100" math="0" shadow="0">
      <root>
        <mxCell id="0" />
        <mxCell id="1" parent="0" />
        <mxCell id="XybgEKAgNjlFZR_4ZTsr-6" style="edgeStyle=none;curved=1;rounded=0;orthogonalLoop=1;jettySize=auto;html=1;endArrow=open;startSize=14;endSize=14;sourcePerimeterSpacing=8;targetPerimeterSpacing=8;" edge="1" parent="1" source="XybgEKAgNjlFZR_4ZTsr-1">
          <mxGeometry relative="1" as="geometry">
            <mxPoint x="237" y="-168" as="targetPoint" />
          </mxGeometry>
        </mxCell>
        <mxCell id="XybgEKAgNjlFZR_4ZTsr-7" style="edgeStyle=none;curved=1;rounded=0;orthogonalLoop=1;jettySize=auto;html=1;endArrow=open;startSize=14;endSize=14;sourcePerimeterSpacing=8;targetPerimeterSpacing=8;" edge="1" parent="1" source="XybgEKAgNjlFZR_4ZTsr-1">
          <mxGeometry relative="1" as="geometry">
            <mxPoint x="32" y="-168" as="targetPoint" />
          </mxGeometry>
        </mxCell>
        <mxCell id="XybgEKAgNjlFZR_4ZTsr-1" value="Vrsta roletne" style="shape=document;whiteSpace=wrap;html=1;boundedLbl=1;" vertex="1" parent="1">
          <mxGeometry x="77" y="-260" width="120" height="51" as="geometry" />
        </mxCell>
        <mxCell id="XybgEKAgNjlFZR_4ZTsr-11" style="edgeStyle=none;curved=1;rounded=0;orthogonalLoop=1;jettySize=auto;html=1;endArrow=open;startSize=14;endSize=14;sourcePerimeterSpacing=8;targetPerimeterSpacing=8;" edge="1" parent="1" source="XybgEKAgNjlFZR_4ZTsr-2" target="XybgEKAgNjlFZR_4ZTsr-10">
          <mxGeometry relative="1" as="geometry" />
        </mxCell>
        <mxCell id="XybgEKAgNjlFZR_4ZTsr-2" value="Unutrasnja" style="rounded=0;whiteSpace=wrap;html=1;" vertex="1" parent="1">
          <mxGeometry x="-105" y="-165" width="120" height="35" as="geometry" />
        </mxCell>
        <mxCell id="XybgEKAgNjlFZR_4ZTsr-4" value="Spoljasnja" style="rounded=0;whiteSpace=wrap;html=1;" vertex="1" parent="1">
          <mxGeometry x="250" y="-169" width="120" height="35" as="geometry" />
        </mxCell>
        <mxCell id="XybgEKAgNjlFZR_4ZTsr-18" style="edgeStyle=none;curved=1;rounded=0;orthogonalLoop=1;jettySize=auto;html=1;endArrow=open;startSize=14;endSize=14;sourcePerimeterSpacing=8;targetPerimeterSpacing=8;" edge="1" parent="1" source="XybgEKAgNjlFZR_4ZTsr-8">
          <mxGeometry relative="1" as="geometry">
            <mxPoint x="-172" y="51" as="targetPoint" />
          </mxGeometry>
        </mxCell>
        <mxCell id="XybgEKAgNjlFZR_4ZTsr-8" value="PVC Kutija" style="rounded=0;whiteSpace=wrap;html=1;" vertex="1" parent="1">
          <mxGeometry x="-232" y="-4" width="120" height="26" as="geometry" />
        </mxCell>
        <mxCell id="XybgEKAgNjlFZR_4ZTsr-12" style="edgeStyle=none;curved=1;rounded=0;orthogonalLoop=1;jettySize=auto;html=1;endArrow=open;startSize=14;endSize=14;sourcePerimeterSpacing=8;targetPerimeterSpacing=8;" edge="1" parent="1">
          <mxGeometry relative="1" as="geometry">
            <mxPoint x="-113" y="-23" as="sourcePoint" />
            <mxPoint x="-138" y="-12" as="targetPoint" />
          </mxGeometry>
        </mxCell>
        <mxCell id="XybgEKAgNjlFZR_4ZTsr-15" style="edgeStyle=none;curved=1;rounded=0;orthogonalLoop=1;jettySize=auto;html=1;endArrow=open;startSize=14;endSize=14;sourcePerimeterSpacing=8;targetPerimeterSpacing=8;" edge="1" parent="1" source="XybgEKAgNjlFZR_4ZTsr-10" target="XybgEKAgNjlFZR_4ZTsr-13">
          <mxGeometry relative="1" as="geometry" />
        </mxCell>
        <mxCell id="XybgEKAgNjlFZR_4ZTsr-16" style="edgeStyle=none;curved=1;rounded=0;orthogonalLoop=1;jettySize=auto;html=1;endArrow=open;startSize=14;endSize=14;sourcePerimeterSpacing=8;targetPerimeterSpacing=8;" edge="1" parent="1" source="XybgEKAgNjlFZR_4ZTsr-10">
          <mxGeometry relative="1" as="geometry">
            <mxPoint x="37" y="-16" as="targetPoint" />
          </mxGeometry>
        </mxCell>
        <mxCell id="XybgEKAgNjlFZR_4ZTsr-10" value="Vrsta kutije" style="shape=document;whiteSpace=wrap;html=1;boundedLbl=1;" vertex="1" parent="1">
          <mxGeometry x="-109" y="-93" width="120" height="52" as="geometry" />
        </mxCell>
        <mxCell id="XybgEKAgNjlFZR_4ZTsr-13" value="Laminirana Kutija" style="rounded=0;whiteSpace=wrap;html=1;" vertex="1" parent="1">
          <mxGeometry x="-105" y="-4" width="120" height="26" as="geometry" />
        </mxCell>
        <mxCell id="XybgEKAgNjlFZR_4ZTsr-14" value="Antracit Kutija" style="rounded=0;whiteSpace=wrap;html=1;" vertex="1" parent="1">
          <mxGeometry x="22" y="-4" width="120" height="26" as="geometry" />
        </mxCell>
        <mxCell id="XybgEKAgNjlFZR_4ZTsr-17" value="Vrsta vodjice" style="shape=document;whiteSpace=wrap;html=1;boundedLbl=1;" vertex="1" parent="1">
          <mxGeometry x="-232" y="59" width="120" height="52" as="geometry" />
        </mxCell>
      </root>
    </mxGraphModel>
  </diagram>
</mxfile>
